<svg width="40" height="39" viewBox="0 0 40 39" fill="none" xmlns="http://www.w3.org/2000/svg">
<rect x="1" width="39" height="39" rx="19.5" fill="#9BCCFD"/>
<path d="M20.7311 27.126C19.2751 27.126 17.9591 26.804 16.7831 26.16C15.6211 25.516 14.7041 24.627 14.0321 23.493C13.3741 22.345 13.0451 21.064 13.0451 19.65C13.0451 18.236 13.3741 16.962 14.0321 15.828C14.7041 14.68 15.6281 13.784 16.8041 13.14C17.9801 12.496 19.2961 12.174 20.7521 12.174C21.8441 12.174 22.8521 12.356 23.7761 12.72C24.7001 13.084 25.4841 13.616 26.1281 14.316L25.1411 15.303C23.9931 14.141 22.5441 13.56 20.7941 13.56C19.6321 13.56 18.5751 13.826 17.6231 14.358C16.6711 14.89 15.9221 15.618 15.3761 16.542C14.8441 17.466 14.5781 18.502 14.5781 19.65C14.5781 20.798 14.8441 21.834 15.3761 22.758C15.9221 23.682 16.6711 24.41 17.6231 24.942C18.5751 25.474 19.6321 25.74 20.7941 25.74C22.5581 25.74 24.0071 25.152 25.1411 23.976L26.1281 24.963C25.4841 25.663 24.6931 26.202 23.7551 26.58C22.8311 26.944 21.8231 27.126 20.7311 27.126Z" fill="white"/>
</svg>
