<svg width="21" height="22" viewBox="0 0 21 22" fill="none" xmlns="http://www.w3.org/2000/svg">
<path d="M1 15.5C0.723858 15.5 0.5 15.7239 0.5 16C0.5 16.2761 0.723858 16.5 1 16.5V15.5ZM4 8H3.5H4ZM18 8H18.5H18ZM12.73 20L13.1625 20.2509C13.2522 20.0962 13.2525 19.9054 13.1633 19.7504C13.074 19.5955 12.9088 19.5 12.73 19.5V20ZM9.27 20V19.5C9.09118 19.5 8.92598 19.5955 8.83673 19.7504C8.74748 19.9054 8.74778 20.0962 8.8375 20.2509L9.27 20ZM21 15.5H1V16.5H21V15.5ZM1 16.5C2.933 16.5 4.5 14.933 4.5 13H3.5C3.5 14.3807 2.38071 15.5 1 15.5V16.5ZM4.5 13V8H3.5V13H4.5ZM4.5 8C4.5 4.41015 7.41015 1.5 11 1.5V0.5C6.85786 0.5 3.5 3.85786 3.5 8H4.5ZM11 1.5C14.5899 1.5 17.5 4.41015 17.5 8H18.5C18.5 3.85786 15.1421 0.5 11 0.5V1.5ZM17.5 8V13H18.5V8H17.5ZM17.5 13C17.5 14.933 19.067 16.5 21 16.5V15.5C19.6193 15.5 18.5 14.3807 18.5 13H17.5ZM12.2975 19.7491C12.0292 20.2117 11.5348 20.4965 11 20.4965V21.4965C11.8913 21.4965 12.7153 21.0219 13.1625 20.2509L12.2975 19.7491ZM11 20.4965C10.4652 20.4965 9.97085 20.2117 9.7025 19.7491L8.8375 20.2509C9.28475 21.0219 10.1087 21.4965 11 21.4965V20.4965ZM9.27 20.5H12.73V19.5H9.27V20.5Z" fill="#74778C"/>
</svg>
