<svg width="43" height="41" viewBox="0 0 43 41" fill="none" xmlns="http://www.w3.org/2000/svg">
<path d="M24.8121 17.6982C25.2373 18.1502 25.9516 18.1628 26.3923 17.7258L26.9755 17.1476C27.4162 16.7108 27.4101 15.9963 26.9617 15.5672L23.8803 12.5731C23.5787 12.2801 23.5698 11.7986 23.8601 11.4946L32.6025 2.34139C32.9995 1.9257 32.9802 1.25599 32.5593 0.83136C32.1384 0.40646 31.4687 0.381545 31.0496 0.774895L21.7523 9.50186C21.4582 9.77782 20.9992 9.77375 20.71 9.49279L11.2549 0.30626C10.8229 -0.107266 10.14 -0.101308 9.71525 0.319802C9.29048 0.740638 9.27857 1.42362 9.68831 1.85908L24.8121 17.6982Z" fill="#44AE49"/>
<path d="M17.1212 22.7229C16.6957 22.2708 15.9813 22.2583 15.5407 22.6951L14.9575 23.2733C14.5168 23.7104 14.523 24.4248 14.9713 24.8539L18.0519 27.847C18.3541 28.1406 18.3631 28.6226 18.0721 28.9273L9.33051 38.0796C8.9335 38.4952 8.95274 39.1649 9.3737 39.5898C9.79469 40.0145 10.4644 40.0394 10.8833 39.6459L20.1919 30.9089C20.4797 30.6388 20.9292 30.6425 21.2123 30.9178L30.6781 40.1148C31.1103 40.5284 31.7932 40.5223 32.2179 40.1012C32.6426 39.6802 32.6546 38.9974 32.2449 38.5619L17.1212 22.7229Z" fill="#DD3B93"/>
<path d="M19.0127 15.4148L17.9949 14.388C17.5579 13.9473 16.8435 13.9536 16.4143 14.4018L13.4573 17.5335C13.1695 17.8381 12.6903 17.8549 12.382 17.5711L2.76726 8.72026L3.60265 7.88494C3.65287 7.83469 3.67813 7.77282 3.67806 7.6993C3.67806 7.62592 3.65295 7.5639 3.60265 7.51366C3.55241 7.46341 3.49047 7.43823 3.41701 7.43823H0.261129C0.187603 7.43823 0.125791 7.46341 0.0754882 7.51366C0.0252529 7.5639 6.76976e-05 7.62592 6.76976e-05 7.6993L0 10.8553C0 10.9287 0.0251176 10.9907 0.0754203 11.0408C0.125656 11.0912 0.187603 11.1164 0.261061 11.1164C0.334584 11.1164 0.396465 11.0912 0.446701 11.041L1.2072 10.2804L10.0864 20.0961C10.3491 20.3864 10.3444 20.83 10.0755 21.1148L1.37327 30.3307C0.959748 30.7624 0.965705 31.4455 1.38681 31.8702C1.80779 32.2949 2.49062 32.3069 2.92624 31.897L18.9851 16.9951C19.4372 16.5699 19.4497 15.8555 19.0127 15.4148Z" fill="#615788"/>
<path d="M42.0261 29.7696C41.9758 29.7193 41.914 29.6942 41.8405 29.6942C41.767 29.6942 41.705 29.7193 41.6547 29.7696L40.8204 30.6039C40.7999 30.5776 40.7919 30.5457 40.7685 30.521L31.8863 20.702C31.6218 20.4095 31.6265 19.9628 31.8973 19.676L40.596 10.4639C41.0095 10.0318 41.0036 9.34898 40.5826 8.92436C40.1615 8.49945 39.4786 8.48754 39.0431 8.89728L22.984 23.7992C22.532 24.2246 22.5195 24.9389 22.9565 25.3796L23.9744 26.4065C24.4113 26.847 25.1259 26.8409 25.5548 26.3925L28.5206 23.2517C28.8037 22.9521 29.2747 22.9356 29.5779 23.2147L39.2022 32.0739C39.2289 32.0998 39.2639 32.1092 39.2926 32.1317L38.4989 32.9254C38.4486 32.9757 38.4235 33.0377 38.4235 33.1112C38.4235 33.1845 38.4486 33.2465 38.4989 33.297C38.5491 33.3471 38.6111 33.3722 38.6844 33.3722H41.8403C41.9138 33.3722 41.9758 33.3471 42.0261 33.2968C42.0764 33.2465 42.1015 33.1845 42.1015 33.1112V29.9551C42.1015 29.8819 42.0764 29.8198 42.0261 29.7696Z" fill="#F1624F"/>
</svg>
