<svg width="24" height="14" viewBox="0 0 24 14" fill="none" xmlns="http://www.w3.org/2000/svg">
<path d="M11.8462 0C10.9893 0 10.1675 0.340384 9.56166 0.946271C8.95577 1.55216 8.61539 2.37392 8.61539 3.23077C8.61539 4.08762 8.95577 4.90938 9.56166 5.51527C10.1675 6.12116 10.9893 6.46154 11.8462 6.46154C12.703 6.46154 13.5248 6.12116 14.1307 5.51527C14.7365 4.90938 15.0769 4.08762 15.0769 3.23077C15.0769 2.37392 14.7365 1.55216 14.1307 0.946271C13.5248 0.340384 12.703 0 11.8462 0ZM5.38462 2.33692C4.67057 2.33692 3.98577 2.62058 3.48087 3.12548C2.97596 3.63039 2.69231 4.31519 2.69231 5.02923C2.69231 5.38279 2.76195 5.73289 2.89725 6.05953C3.03255 6.38618 3.23086 6.68298 3.48087 6.93298C3.73087 7.18298 4.02767 7.3813 4.35431 7.5166C4.68096 7.6519 5.03106 7.72154 5.38462 7.72154C6.33231 7.72154 7.16154 7.22615 7.63539 6.49385C6.91385 5.57846 6.46154 4.46923 6.46154 3.23077C6.46154 3.01538 6.46154 2.8 6.50462 2.58461C6.16 2.42308 5.78308 2.33692 5.38462 2.33692ZM18.3077 2.33692C17.9092 2.33692 17.5323 2.42308 17.1877 2.58461C17.2308 2.8 17.2308 3.01538 17.2308 3.23077C17.2308 4.46923 16.7785 5.57846 16.0569 6.49385C16.5308 7.22615 17.36 7.72154 18.3077 7.72154C18.6613 7.72154 19.0113 7.6519 19.338 7.5166C19.6646 7.3813 19.9614 7.18298 20.2114 6.93298C20.4614 6.68298 20.6598 6.38618 20.7951 6.05953C20.9304 5.73289 21 5.38279 21 5.02923C21 4.67567 20.9304 4.32557 20.7951 3.99893C20.6598 3.67228 20.4614 3.37549 20.2114 3.12548C19.9614 2.87548 19.6646 2.67716 19.338 2.54186C19.0113 2.40656 18.6613 2.33692 18.3077 2.33692ZM11.8462 8.61539C9.69231 8.61539 5.38462 9.69231 5.38462 11.8462V14H18.3077V11.8462C18.3077 9.69231 14 8.61539 11.8462 8.61539ZM3.95231 9.66C2.15385 9.97231 0 10.8123 0 12.2015V14H3.23077V11.8462C3.23077 11.0062 3.54308 10.2631 3.95231 9.66ZM19.74 9.66C20.1492 10.2631 20.4615 11.0062 20.4615 11.8462V14H23.6923V12.2015C23.6923 10.8123 21.5385 9.97231 19.74 9.66Z" fill="#646464"/>
</svg>
